<svg width="32" height="32" viewBox="0 0 32 32" fill="none" xmlns="http://www.w3.org/2000/svg">
<path d="M6.65361 9.58672C6.65361 7.96711 7.96591 6.65483 9.58551 6.65353H10.9198C11.694 6.65353 12.4357 6.3462 12.9855 5.80157L13.9179 4.86793C15.0603 3.71904 16.9172 3.71385 18.0661 4.85497L18.0673 4.85627L18.0791 4.86664L19.0127 5.80028C19.5612 6.3462 20.3043 6.65223 21.0784 6.65223H22.4153C24.0349 6.65223 25.3485 7.96581 25.3485 9.58543V10.9185C25.3485 11.6939 25.6545 12.4356 26.2004 12.9854L27.1341 13.919C28.2829 15.0615 28.2895 16.9183 27.1484 18.0673L26.2017 19.0139C25.6559 19.5625 25.3499 20.3054 25.3499 21.0783V22.4165C25.3472 24.0361 24.0336 25.3458 22.4153 25.3445H21.0757C20.3016 25.3445 19.5587 25.6518 19.0101 26.1978L18.0765 27.1301C16.9367 28.2803 15.0797 28.2881 13.9308 27.1482L13.9269 27.1457L12.9829 26.2017C12.4344 25.6557 11.6914 25.3497 10.9173 25.3485H9.58551C7.96591 25.3485 6.65361 24.0361 6.65361 22.4165V21.0757C6.65361 20.3015 6.34629 19.5598 5.80037 19.0113L4.86803 18.0777C3.71783 16.9378 3.71005 15.0835 4.84857 13.9333C4.84857 13.9333 4.85247 13.9307 4.85376 13.9282L5.79777 12.9828C6.34369 12.4343 6.65103 11.6913 6.65103 10.9159V9.58672" stroke="#725FFF" stroke-width="1.5" stroke-linecap="round" stroke-linejoin="round"/>
<path d="M12.0051 16.1631L14.6414 18.8032L20.072 13.3699" stroke="#725FFF" stroke-width="1.5" stroke-linecap="round" stroke-linejoin="round"/>
</svg>
