<svg width="24" height="24" viewBox="0 0 24 24" fill="none" xmlns="http://www.w3.org/2000/svg">
<path d="M17.5994 7.2V18.4C17.5994 18.8243 17.4308 19.2313 17.1308 19.5314C16.8307 19.8314 16.4238 20 15.9994 20H7.99941C7.57507 20 7.1681 19.8314 6.86804 19.5314C6.56798 19.2313 6.39941 18.8243 6.39941 18.4V7.2" stroke="#565656" stroke-width="1.25" stroke-linecap="round" stroke-linejoin="round"/>
<path d="M4.7998 7.2H19.1998" stroke="#565656" stroke-width="1.25" stroke-linecap="round" stroke-linejoin="round"/>
<path d="M8.7998 7.2V5.6C8.7998 5.17565 8.96838 4.76869 9.26843 4.46863C9.56849 4.16857 9.97546 4 10.3998 4H13.5998C14.0242 4 14.4311 4.16857 14.7312 4.46863C15.0312 4.76869 15.1998 5.17565 15.1998 5.6V7.2" stroke="#565656" stroke-width="1.25" stroke-linecap="round" stroke-linejoin="round"/>
</svg>
